<svg xmlns="http://www.w3.org/2000/svg" fill="none" viewBox="0 0 128 128">
  <path d="M4.425 38.59h13.274l14.02 34.206h.596l14.02-34.205H59.61V89.5H49.17V56.364h-.422L35.572 89.251h-7.11l-13.174-33.01h-.423V89.5H4.425V38.59ZM68.478 89.5V38.59h20.085c3.86 0 7.15.738 9.868 2.213 2.718 1.459 4.79 3.489 6.215 6.09 1.442 2.586 2.162 5.569 2.162 8.95 0 3.38-.729 6.363-2.187 8.948-1.458 2.585-3.571 4.599-6.339 6.04-2.75 1.442-6.082 2.163-9.993 2.163H75.487V64.37H86.55c2.072 0 3.779-.357 5.12-1.07 1.36-.728 2.37-1.731 3.034-3.007.679-1.293 1.019-2.776 1.019-4.45 0-1.69-.34-3.165-1.02-4.424-.662-1.276-1.673-2.262-3.032-2.959-1.359-.712-3.082-1.068-5.17-1.068h-7.26V89.5H68.479Zm48.92.646c-1.641 0-3.049-.58-4.226-1.74-1.16-1.176-1.74-2.585-1.74-4.226 0-1.624.58-3.016 1.74-4.176 1.177-1.16 2.585-1.74 4.226-1.74 1.591 0 2.983.58 4.176 1.74 1.193 1.16 1.79 2.552 1.79 4.176a5.613 5.613 0 0 1-.845 3.008 6.429 6.429 0 0 1-2.163 2.163 5.695 5.695 0 0 1-2.958.795Z"/>
  <style>
    path { fill: #0F172A; }
    @media (prefers-color-scheme: dark) {
        path { fill: #FFF; }
    }
  </style>
</svg>